<mxfile host="app.diagrams.net" agent="Mozilla/5.0 (Windows NT 10.0; Win64; x64) AppleWebKit/537.36 (KHTML, like Gecko) Chrome/129.0.0.0 Safari/537.36" version="24.7.14">
  <diagram name="Page-1" id="Qd_JSUy-2PY3cQ_-W36q">
    <mxGraphModel dx="1050" dy="1662" grid="1" gridSize="10" guides="1" tooltips="1" connect="1" arrows="1" fold="1" page="1" pageScale="1" pageWidth="850" pageHeight="1100" math="0" shadow="0">
      <root>
        <mxCell id="0" />
        <mxCell id="1" parent="0" />
        <mxCell id="7MYLrjF1jAQgoCgVVDOL-1" value="ClearApp Use Case Diagram" style="text;html=1;align=center;verticalAlign=middle;whiteSpace=wrap;rounded=0;" vertex="1" parent="1">
          <mxGeometry width="140" height="80" as="geometry" />
        </mxCell>
        <mxCell id="7MYLrjF1jAQgoCgVVDOL-3" value="Anno" style="swimlane;startSize=0;" vertex="1" parent="1">
          <mxGeometry x="230" y="-90" width="630" height="1170" as="geometry" />
        </mxCell>
        <mxCell id="7MYLrjF1jAQgoCgVVDOL-6" value="onboarding a school" style="ellipse;whiteSpace=wrap;html=1;" vertex="1" parent="7MYLrjF1jAQgoCgVVDOL-3">
          <mxGeometry x="50" y="40" width="120" height="80" as="geometry" />
        </mxCell>
        <mxCell id="7MYLrjF1jAQgoCgVVDOL-7" value="CRUD Departments" style="ellipse;whiteSpace=wrap;html=1;" vertex="1" parent="7MYLrjF1jAQgoCgVVDOL-3">
          <mxGeometry x="50" y="280" width="120" height="80" as="geometry" />
        </mxCell>
        <mxCell id="7MYLrjF1jAQgoCgVVDOL-8" value="Register students" style="ellipse;whiteSpace=wrap;html=1;" vertex="1" parent="7MYLrjF1jAQgoCgVVDOL-3">
          <mxGeometry x="50" y="400" width="120" height="80" as="geometry" />
        </mxCell>
        <mxCell id="7MYLrjF1jAQgoCgVVDOL-9" value="Logout" style="ellipse;whiteSpace=wrap;html=1;" vertex="1" parent="7MYLrjF1jAQgoCgVVDOL-3">
          <mxGeometry x="50" y="1050" width="120" height="80" as="geometry" />
        </mxCell>
        <mxCell id="7MYLrjF1jAQgoCgVVDOL-10" value="Open/Close Clearance" style="ellipse;whiteSpace=wrap;html=1;" vertex="1" parent="7MYLrjF1jAQgoCgVVDOL-3">
          <mxGeometry x="60" y="610" width="120" height="80" as="geometry" />
        </mxCell>
        <mxCell id="7MYLrjF1jAQgoCgVVDOL-11" value="Login" style="ellipse;whiteSpace=wrap;html=1;" vertex="1" parent="7MYLrjF1jAQgoCgVVDOL-3">
          <mxGeometry x="50" y="160" width="120" height="80" as="geometry" />
        </mxCell>
        <mxCell id="7MYLrjF1jAQgoCgVVDOL-12" value="View clearance updates" style="ellipse;whiteSpace=wrap;html=1;" vertex="1" parent="7MYLrjF1jAQgoCgVVDOL-3">
          <mxGeometry x="60" y="500" width="120" height="80" as="geometry" />
        </mxCell>
        <mxCell id="7MYLrjF1jAQgoCgVVDOL-14" value="Generate clearance report" style="ellipse;whiteSpace=wrap;html=1;" vertex="1" parent="7MYLrjF1jAQgoCgVVDOL-3">
          <mxGeometry x="60" y="730" width="120" height="80" as="geometry" />
        </mxCell>
        <mxCell id="7MYLrjF1jAQgoCgVVDOL-15" value="View clearance logs" style="ellipse;whiteSpace=wrap;html=1;" vertex="1" parent="7MYLrjF1jAQgoCgVVDOL-3">
          <mxGeometry x="60" y="840" width="120" height="80" as="geometry" />
        </mxCell>
        <mxCell id="7MYLrjF1jAQgoCgVVDOL-16" value="Announcements" style="ellipse;whiteSpace=wrap;html=1;" vertex="1" parent="7MYLrjF1jAQgoCgVVDOL-3">
          <mxGeometry x="60" y="950" width="120" height="80" as="geometry" />
        </mxCell>
        <mxCell id="7MYLrjF1jAQgoCgVVDOL-4" value="Admin" style="shape=umlActor;verticalLabelPosition=bottom;verticalAlign=top;html=1;outlineConnect=0;" vertex="1" parent="1">
          <mxGeometry x="110" y="240" width="30" height="60" as="geometry" />
        </mxCell>
        <mxCell id="7MYLrjF1jAQgoCgVVDOL-5" value="Stduent" style="shape=umlActor;verticalLabelPosition=bottom;verticalAlign=top;html=1;outlineConnect=0;" vertex="1" parent="1">
          <mxGeometry x="900" y="220" width="30" height="60" as="geometry" />
        </mxCell>
      </root>
    </mxGraphModel>
  </diagram>
</mxfile>
